<?xml version="1.0" encoding="UTF-8" standalone="no"?>
<svg
   xmlns:dc="http://purl.org/dc/elements/1.1/"
   xmlns:cc="http://creativecommons.org/ns#"
   xmlns:rdf="http://www.w3.org/1999/02/22-rdf-syntax-ns#"
   xmlns:svg="http://www.w3.org/2000/svg"
   xmlns="http://www.w3.org/2000/svg"
   xmlns:sodipodi="http://sodipodi.sourceforge.net/DTD/sodipodi-0.dtd"
   xmlns:inkscape="http://www.inkscape.org/namespaces/inkscape"
   width="91mm"
   height="103mm"
   version="1.1"
   viewBox="0 0 343.93699 389.29132"
   id="svg92"
   sodipodi:docname="robotic-arm.svg"
   inkscape:version="0.92.4 5da689c313, 2019-01-14">
  <metadata
     id="metadata98">
    <rdf:RDF>
      <cc:Work
         rdf:about="">
        <dc:format>image/svg+xml</dc:format>
        <dc:type
           rdf:resource="http://purl.org/dc/dcmitype/StillImage" />
        <dc:title></dc:title>
      </cc:Work>
    </rdf:RDF>
  </metadata>
  <defs
     id="defs96" />
  <sodipodi:namedview
     pagecolor="#ffffff"
     bordercolor="#666666"
     borderopacity="1"
     objecttolerance="10"
     gridtolerance="10"
     guidetolerance="10"
     inkscape:pageopacity="0"
     inkscape:pageshadow="2"
     inkscape:window-width="3836"
     inkscape:window-height="2121"
     id="namedview94"
     showgrid="false"
     inkscape:zoom="3.756"
     inkscape:cx="227.36954"
     inkscape:cy="218.05112"
     inkscape:window-x="0"
     inkscape:window-y="35"
     inkscape:window-maximized="1"
     inkscape:current-layer="g90"
     units="mm" />
  <g
     transform="matrix(7.0274,0,0,7.0274,74.315,-7080.4086)"
     id="g90">
    <circle
       cx="13.90056"
       cy="1031.9528"
       r="23.150999"
       id="circle74"
       style="fill:none;stroke:#555555;stroke-width:2.08010006" />
    <path
       d="m 13.4146,1022.8916 a 1.1583,1.1583 0 0 0 -0.67969,2.1152 l 0.70508,0.4922 c 0.89074,-0.068 1.5928,-0.8029 1.5938,-1.7109 v 0 l -0.9707,-0.6777 a 1.1583,1.1583 0 0 0 -0.64844,-0.2168 z m 1.8477,1.0547 c -0.07089,0.8671 -0.69702,1.5756 -1.5273,1.7598 l 8.6113,6.0234 c 0.2216,-0.7723 0.67724,-1.4377 1.293,-1.9219 z m 8.8262,6.1758 c -0.64122,0.4553 -1.107,1.1345 -1.2852,1.9277 l 1.8516,1.2949 a 1.1585,1.1585 0 0 0 1.3281,-1.8984 z"
       style="color:#000000;text-indent:0;text-decoration:none;text-decoration-line:none;text-decoration-style:solid;text-decoration-color:#000000;text-transform:none;white-space:normal;isolation:auto;mix-blend-mode:normal;solid-color:#000000;fill:#bf2d32;fill-opacity:1;fill-rule:evenodd;color-rendering:auto;image-rendering:auto;shape-rendering:auto"
       id="path76"
       inkscape:connector-curvature="0" />
    <path
       d="m 25.6296,1031.3076 a 1.7375,1.7375 0 0 0 -1.1973,0.5195 l -1.6387,1.6211 c 0.26272,1.2282 1.2181,2.1918 2.4395,2.4727 l 1.6426,-1.623 a 1.7375,1.7375 0 0 0 -1.2461,-2.9902 z m -3.2617,2.5605 -10.867,10.74 h 4.9434 l 8.3613,-8.2656 c -1.1672,-0.3782 -2.076,-1.3001 -2.4375,-2.4746 z m -11.178,11.088 a 1.7381,1.7381 0 0 0 2.6562,2.2207 l 2.2461,-2.2207 z"
       style="color:#000000;text-indent:0;text-decoration:none;text-decoration-line:none;text-decoration-style:solid;text-decoration-color:#000000;text-transform:none;white-space:normal;isolation:auto;mix-blend-mode:normal;solid-color:#000000;fill:#bf2d32;fill-opacity:1;fill-rule:evenodd;color-rendering:auto;image-rendering:auto;shape-rendering:auto"
       id="path78"
       inkscape:connector-curvature="0" />
    <rect
       x="4.648591"
       y="1044.8528"
       width="16.860001"
       height="3.5274"
       ry="1.7637"
       id="rect80"
       style="fill:#bf2d32;fill-opacity:1" />
    <path
       d="m 25.9616,1029.2796 a 3.4847,3.4847 0 0 0 -3.4844,3.4844 3.4847,3.4847 0 0 0 3.4844,3.4863 3.4847,3.4847 0 0 0 3.4863,-3.4863 3.4847,3.4847 0 0 0 -3.4863,-3.4844 z m 0,1.1543 c 1.2858,0 2.332,1.0463 2.332,2.332 3e-6,1.2858 -1.0463,2.332 -2.332,2.332 -1.2858,0 -2.3301,-1.0462 -2.3301,-2.332 -3e-6,-1.2857 1.0443,-2.332 2.3301,-2.332 z m 0,0.3477 c -1.098,0 -1.9844,0.8863 -1.9844,1.9844 -3e-6,1.098 0.88638,1.9844 1.9844,1.9844 1.09802,0 1.9844,-0.8864 1.9844,-1.9844 2e-6,-1.098 -0.88638,-1.9844 -1.9844,-1.9844 z"
       id="path82"
       style="fill:#bf2d32;fill-opacity:1"
       inkscape:connector-curvature="0" />
    <circle
       cx="25.961586"
       cy="1032.7527"
       r="2.1580999"
       id="circle84"
       style="fill:#555555;fill-opacity:1;stroke:#ffffff;stroke-width:0.34746;stroke-linecap:round;stroke-linejoin:round" />
    <path
       d="m 8.3265982,1017.1826 -4.2402045,1.3711 a 0.5884,0.5884 0 1 0 0.3613303,1.1191 l 3.5566036,-1.1504 3.8965024,3.8965 c 0.28844,-0.2971 0.66841,-0.4977 1.0957,-0.5664 l -4.6699018,-4.6699 z m 4.8906018,4.8906 c -0.44982,0.024 -0.85165,0.2146 -1.1445,0.5176 l 0.03906,0.039 -0.12305,0.6465 -0.02734,0.1035 -0.26758,0.9961 c 0.16423,0.4528 0.50713,0.8188 0.94922,1.0039 l 0.45508,-1.6973 0.03906,-0.1445 0.24609,-1.2988 -0.16602,-0.166 z m -10.0310072,0.9531 a 0.5884,0.5884 0 0 0 -0.4160206,0.9942 l 2.914103,3.2949 6.7051048,-1.7969 c -0.40037,-0.2142 -0.72144,-0.556 -0.89648,-0.9786 l -5.4102042,1.4492 -2.4316027,-2.748 a 0.5884,0.5884 0 0 0 -0.4648403,-0.2148 z"
       style="color:#000000;text-indent:0;text-decoration:none;text-decoration-line:none;text-decoration-style:solid;text-decoration-color:#000000;text-transform:none;white-space:normal;isolation:auto;mix-blend-mode:normal;solid-color:#000000;fill:#bf2d32;fill-opacity:1;fill-rule:evenodd;color-rendering:auto;image-rendering:auto;shape-rendering:auto"
       id="path86"
       inkscape:connector-curvature="0" />
    <circle
       cx="13.309563"
       cy="1023.7536"
       r="1.7612"
       id="circle88"
       style="fill:#555555" />
    <text
       xml:space="preserve"
       style="font-style:normal;font-variant:normal;font-weight:900;font-stretch:normal;font-size:5.69200563px;line-height:1.25;font-family:'Source Code Pro';-inkscape-font-specification:'Source Code Pro, Heavy';font-variant-ligatures:normal;font-variant-caps:normal;font-variant-numeric:normal;font-feature-settings:normal;text-align:start;letter-spacing:0px;word-spacing:0px;writing-mode:lr-tb;text-anchor:start;fill:#555555;fill-opacity:1;stroke:none;stroke-width:0.14230014"
       x="7.0701895"
       y="1062.8337"
       id="text4610"><tspan
         sodipodi:role="line"
         id="tspan4608"
         x="7.0701895"
         y="1062.8337"
         style="font-style:normal;font-variant:normal;font-weight:900;font-stretch:normal;font-size:5.69200563px;font-family:'Source Code Pro';-inkscape-font-specification:'Source Code Pro, Heavy';font-variant-ligatures:normal;font-variant-caps:normal;font-variant-numeric:normal;font-feature-settings:normal;text-align:start;writing-mode:lr-tb;text-anchor:start;fill:#555555;fill-opacity:1;stroke-width:0.14230014">Prod</tspan></text>
  </g>
</svg>
